<svg width="228" height="42" viewBox="0 0 228 42" fill="none" xmlns="http://www.w3.org/2000/svg">
<path d="M224.062 6.75H203.531C203.377 6.75 203.25 6.87656 203.25 7.03125V9C203.25 9.15469 203.377 9.28125 203.531 9.28125H224.062C224.217 9.28125 224.344 9.15469 224.344 9V7.03125C224.344 6.87656 224.217 6.75 224.062 6.75ZM224.062 16.7344H203.531C203.377 16.7344 203.25 16.8609 203.25 17.0156V18.9844C203.25 19.1391 203.377 19.2656 203.531 19.2656H224.062C224.217 19.2656 224.344 19.1391 224.344 18.9844V17.0156C224.344 16.8609 224.217 16.7344 224.062 16.7344ZM224.062 26.7188H203.531C203.377 26.7188 203.25 26.8453 203.25 27V28.9688C203.25 29.1234 203.377 29.25 203.531 29.25H224.062C224.217 29.25 224.344 29.1234 224.344 28.9688V27C224.344 26.8453 224.217 26.7188 224.062 26.7188ZM195.656 8.01562C195.656 8.27416 195.707 8.53017 195.806 8.76903C195.905 9.00789 196.05 9.22493 196.233 9.40774C196.416 9.59056 196.633 9.73557 196.872 9.83451C197.11 9.93345 197.366 9.98438 197.625 9.98438C197.884 9.98438 198.14 9.93345 198.378 9.83451C198.617 9.73557 198.834 9.59056 199.017 9.40774C199.2 9.22493 199.345 9.00789 199.444 8.76903C199.543 8.53017 199.594 8.27416 199.594 8.01562C199.594 7.75709 199.543 7.50108 199.444 7.26222C199.345 7.02336 199.2 6.80632 199.017 6.62351C198.834 6.44069 198.617 6.29568 198.378 6.19674C198.14 6.0978 197.884 6.04688 197.625 6.04688C197.366 6.04688 197.11 6.0978 196.872 6.19674C196.633 6.29568 196.416 6.44069 196.233 6.62351C196.05 6.80632 195.905 7.02336 195.806 7.26222C195.707 7.50108 195.656 7.75709 195.656 8.01562ZM195.656 18C195.656 18.2585 195.707 18.5145 195.806 18.7534C195.905 18.9923 196.05 19.2093 196.233 19.3921C196.416 19.5749 196.633 19.7199 196.872 19.8189C197.11 19.9178 197.366 19.9688 197.625 19.9688C197.884 19.9688 198.14 19.9178 198.378 19.8189C198.617 19.7199 198.834 19.5749 199.017 19.3921C199.2 19.2093 199.345 18.9923 199.444 18.7534C199.543 18.5145 199.594 18.2585 199.594 18C199.594 17.7415 199.543 17.4855 199.444 17.2466C199.345 17.0077 199.2 16.7907 199.017 16.6079C198.834 16.4251 198.617 16.2801 198.378 16.1811C198.14 16.0822 197.884 16.0312 197.625 16.0312C197.366 16.0312 197.11 16.0822 196.872 16.1811C196.633 16.2801 196.416 16.4251 196.233 16.6079C196.05 16.7907 195.905 17.0077 195.806 17.2466C195.707 17.4855 195.656 17.7415 195.656 18ZM195.656 27.9844C195.656 28.2429 195.707 28.4989 195.806 28.7378C195.905 28.9766 196.05 29.1937 196.233 29.3765C196.416 29.5593 196.633 29.7043 196.872 29.8033C197.11 29.9022 197.366 29.9531 197.625 29.9531C197.884 29.9531 198.14 29.9022 198.378 29.8033C198.617 29.7043 198.834 29.5593 199.017 29.3765C199.2 29.1937 199.345 28.9766 199.444 28.7378C199.543 28.4989 199.594 28.2429 199.594 27.9844C199.594 27.7258 199.543 27.4698 199.444 27.231C199.345 26.9921 199.2 26.7751 199.017 26.5923C198.834 26.4094 198.617 26.2644 198.378 26.1655C198.14 26.0665 197.884 26.0156 197.625 26.0156C197.366 26.0156 197.11 26.0665 196.872 26.1655C196.633 26.2644 196.416 26.4094 196.233 26.5923C196.05 26.7751 195.905 26.9921 195.806 27.231C195.707 27.4698 195.656 27.7258 195.656 27.9844Z" fill="#F9F0FF" fill-opacity="0.85"/>
<path d="M22.2871 24.668C22.0293 27.3984 21.0215 29.5312 19.2637 31.0664C17.5059 32.5898 15.168 33.3516 12.25 33.3516C10.2109 33.3516 8.41211 32.8711 6.85352 31.9102C5.30664 30.9375 4.11133 29.5605 3.26758 27.7793C2.42383 25.998 1.98438 23.9297 1.94922 21.5742V19.1836C1.94922 16.7695 2.37695 14.6426 3.23242 12.8027C4.08789 10.9629 5.3125 9.54492 6.90625 8.54883C8.51172 7.55273 10.3633 7.05469 12.4609 7.05469C15.2852 7.05469 17.5586 7.82227 19.2812 9.35742C21.0039 10.8926 22.0059 13.0605 22.2871 15.8613H17.8574C17.6465 14.0215 17.1074 12.6973 16.2402 11.8887C15.3848 11.0684 14.125 10.6582 12.4609 10.6582C10.5273 10.6582 9.03906 11.3672 7.99609 12.7852C6.96484 14.1914 6.4375 16.2598 6.41406 18.9902V21.2578C6.41406 24.0234 6.90625 26.1328 7.89062 27.5859C8.88672 29.0391 10.3398 29.7656 12.25 29.7656C13.9961 29.7656 15.3086 29.373 16.1875 28.5879C17.0664 27.8027 17.623 26.4961 17.8574 24.668H22.2871ZM40.6035 27.041H30.6895L28.6152 33H23.9922L33.6602 7.40625H37.6504L47.3359 33H42.6953L40.6035 27.041ZM31.9375 23.4551H39.3555L35.6465 12.8379L31.9375 23.4551ZM66.6367 10.9922H58.6562V33H54.2441V10.9922H46.334V7.40625H66.6367V10.9922ZM82.2285 27.041H72.3145L70.2402 33H65.6172L75.2852 7.40625H79.2754L88.9609 33H84.3203L82.2285 27.041ZM73.5625 23.4551H80.9805L77.2715 12.8379L73.5625 23.4551ZM96.3262 29.4492H107.945V33H91.8789V7.40625H96.3262V29.4492ZM130.656 20.8711C130.656 23.3789 130.223 25.582 129.355 27.4805C128.488 29.3672 127.246 30.8203 125.629 31.8398C124.023 32.8477 122.172 33.3516 120.074 33.3516C118 33.3516 116.148 32.8477 114.52 31.8398C112.902 30.8203 111.648 29.373 110.758 27.498C109.879 25.623 109.434 23.4609 109.422 21.0117V19.5703C109.422 17.0742 109.861 14.8711 110.74 12.9609C111.631 11.0508 112.879 9.5918 114.484 8.58398C116.102 7.56445 117.953 7.05469 120.039 7.05469C122.125 7.05469 123.971 7.55859 125.576 8.56641C127.193 9.5625 128.441 11.0039 129.32 12.8906C130.199 14.7656 130.645 16.9512 130.656 19.4473V20.8711ZM126.209 19.5352C126.209 16.6992 125.67 14.5254 124.592 13.0137C123.525 11.502 122.008 10.7461 120.039 10.7461C118.117 10.7461 116.611 11.502 115.521 13.0137C114.443 14.5137 113.893 16.6406 113.869 19.3945V20.8711C113.869 23.6836 114.414 25.8574 115.504 27.3926C116.605 28.9277 118.129 29.6953 120.074 29.6953C122.043 29.6953 123.555 28.9453 124.609 27.4453C125.676 25.9453 126.209 23.7539 126.209 20.8711V19.5352ZM154.703 29.6777C153.777 30.8848 152.494 31.7988 150.854 32.4199C149.213 33.041 147.35 33.3516 145.264 33.3516C143.119 33.3516 141.221 32.8652 139.568 31.8926C137.916 30.9199 136.639 29.5312 135.736 27.7266C134.846 25.9102 134.383 23.7949 134.348 21.3809V19.377C134.348 15.5098 135.273 12.4922 137.125 10.3242C138.977 8.14453 141.561 7.05469 144.877 7.05469C147.725 7.05469 149.986 7.75781 151.662 9.16406C153.338 10.5703 154.346 12.5977 154.686 15.2461H150.326C149.834 12.1641 148.047 10.623 144.965 10.623C142.973 10.623 141.455 11.3438 140.412 12.7852C139.381 14.2148 138.848 16.3184 138.812 19.0957V21.0645C138.812 23.8301 139.393 25.9805 140.553 27.5156C141.725 29.0391 143.348 29.8008 145.422 29.8008C147.695 29.8008 149.312 29.2852 150.273 28.2539V23.2441H145V19.8691H154.703V29.6777ZM180.016 20.8711C180.016 23.3789 179.582 25.582 178.715 27.4805C177.848 29.3672 176.605 30.8203 174.988 31.8398C173.383 32.8477 171.531 33.3516 169.434 33.3516C167.359 33.3516 165.508 32.8477 163.879 31.8398C162.262 30.8203 161.008 29.373 160.117 27.498C159.238 25.623 158.793 23.4609 158.781 21.0117V19.5703C158.781 17.0742 159.221 14.8711 160.1 12.9609C160.99 11.0508 162.238 9.5918 163.844 8.58398C165.461 7.56445 167.312 7.05469 169.398 7.05469C171.484 7.05469 173.33 7.55859 174.936 8.56641C176.553 9.5625 177.801 11.0039 178.68 12.8906C179.559 14.7656 180.004 16.9512 180.016 19.4473V20.8711ZM175.568 19.5352C175.568 16.6992 175.029 14.5254 173.951 13.0137C172.885 11.502 171.367 10.7461 169.398 10.7461C167.477 10.7461 165.971 11.502 164.881 13.0137C163.803 14.5137 163.252 16.6406 163.229 19.3945V20.8711C163.229 23.6836 163.773 25.8574 164.863 27.3926C165.965 28.9277 167.488 29.6953 169.434 29.6953C171.402 29.6953 172.914 28.9453 173.969 27.4453C175.035 25.9453 175.568 23.7539 175.568 20.8711V19.5352Z" fill="#F9F0FF"/>
</svg>
