<svg width="545" height="48" viewBox="0 0 545 48" fill="none" xmlns="http://www.w3.org/2000/svg">
<path d="M27.2188 26.6875H8.53125V40.6875H30.375V47H0.625V1.5H30.1562V7.875H8.53125V20.4375H27.2188V26.6875ZM55.0312 37.8125C55.0312 36.4583 54.4688 35.4271 53.3438 34.7188C52.2396 34.0104 50.3958 33.3854 47.8125 32.8438C45.2292 32.3021 43.0729 31.6146 41.3438 30.7812C37.5521 28.9479 35.6562 26.2917 35.6562 22.8125C35.6562 19.8958 36.8854 17.4583 39.3438 15.5C41.8021 13.5417 44.9271 12.5625 48.7188 12.5625C52.7604 12.5625 56.0208 13.5625 58.5 15.5625C61 17.5625 62.25 20.1562 62.25 23.3438H54.6562C54.6562 21.8854 54.1146 20.6771 53.0312 19.7188C51.9479 18.7396 50.5104 18.25 48.7188 18.25C47.0521 18.25 45.6875 18.6354 44.625 19.4062C43.5833 20.1771 43.0625 21.2083 43.0625 22.5C43.0625 23.6667 43.5521 24.5729 44.5312 25.2188C45.5104 25.8646 47.4896 26.5208 50.4688 27.1875C53.4479 27.8333 55.7812 28.6146 57.4688 29.5312C59.1771 30.4271 60.4375 31.5104 61.25 32.7812C62.0833 34.0521 62.5 35.5938 62.5 37.4062C62.5 40.4479 61.2396 42.9167 58.7188 44.8125C56.1979 46.6875 52.8958 47.625 48.8125 47.625C46.0417 47.625 43.5729 47.125 41.4062 46.125C39.2396 45.125 37.5521 43.75 36.3438 42C35.1354 40.25 34.5312 38.3646 34.5312 36.3438H41.9062C42.0104 38.1354 42.6875 39.5208 43.9375 40.5C45.1875 41.4583 46.8438 41.9375 48.9062 41.9375C50.9062 41.9375 52.4271 41.5625 53.4688 40.8125C54.5104 40.0417 55.0312 39.0417 55.0312 37.8125ZM78.6562 4.96875V13.1875H84.625V18.8125H78.6562V37.6875C78.6562 38.9792 78.9062 39.9167 79.4062 40.5C79.9271 41.0625 80.8438 41.3438 82.1562 41.3438C83.0312 41.3438 83.9167 41.2396 84.8125 41.0312V46.9062C83.0833 47.3854 81.4167 47.625 79.8125 47.625C73.9792 47.625 71.0625 44.4062 71.0625 37.9688V18.8125H65.5V13.1875H71.0625V4.96875H78.6562ZM108.156 20.125C107.156 19.9583 106.125 19.875 105.062 19.875C101.583 19.875 99.2396 21.2083 98.0312 23.875V47H90.4375V13.1875H97.6875L97.875 16.9688C99.7083 14.0312 102.25 12.5625 105.5 12.5625C106.583 12.5625 107.479 12.7083 108.188 13L108.156 20.125ZM127.219 47.625C122.406 47.625 118.5 46.1146 115.5 43.0938C112.521 40.0521 111.031 36.0104 111.031 30.9688V30.0312C111.031 26.6562 111.677 23.6458 112.969 21C114.281 18.3333 116.115 16.2604 118.469 14.7812C120.823 13.3021 123.448 12.5625 126.344 12.5625C130.948 12.5625 134.5 14.0312 137 16.9688C139.521 19.9062 140.781 24.0625 140.781 29.4375V32.5H118.688C118.917 35.2917 119.844 37.5 121.469 39.125C123.115 40.75 125.177 41.5625 127.656 41.5625C131.135 41.5625 133.969 40.1562 136.156 37.3438L140.25 41.25C138.896 43.2708 137.083 44.8438 134.812 45.9688C132.562 47.0729 130.031 47.625 127.219 47.625ZM126.312 18.6562C124.229 18.6562 122.542 19.3854 121.25 20.8438C119.979 22.3021 119.167 24.3333 118.812 26.9375H133.281V26.375C133.115 23.8333 132.438 21.9167 131.25 20.625C130.062 19.3125 128.417 18.6562 126.312 18.6562ZM153.75 13.1875L153.969 17.0938C156.469 14.0729 159.75 12.5625 163.812 12.5625C170.854 12.5625 174.438 16.5938 174.562 24.6562V47H166.969V25.0938C166.969 22.9479 166.5 21.3646 165.562 20.3438C164.646 19.3021 163.135 18.7812 161.031 18.7812C157.969 18.7812 155.688 20.1667 154.188 22.9375V47H146.594V13.1875H153.75ZM180.906 29.7812C180.906 26.4688 181.562 23.4896 182.875 20.8438C184.188 18.1771 186.031 16.1354 188.406 14.7188C190.781 13.2812 193.51 12.5625 196.594 12.5625C201.156 12.5625 204.854 14.0312 207.688 16.9688C210.542 19.9062 212.083 23.8021 212.312 28.6562L212.344 30.4375C212.344 33.7708 211.698 36.75 210.406 39.375C209.135 42 207.302 44.0312 204.906 45.4688C202.531 46.9062 199.781 47.625 196.656 47.625C191.885 47.625 188.062 46.0417 185.188 42.875C182.333 39.6875 180.906 35.4479 180.906 30.1562V29.7812ZM188.5 30.4375C188.5 33.9167 189.219 36.6458 190.656 38.625C192.094 40.5833 194.094 41.5625 196.656 41.5625C199.219 41.5625 201.208 40.5625 202.625 38.5625C204.062 36.5625 204.781 33.6354 204.781 29.7812C204.781 26.3646 204.042 23.6562 202.562 21.6562C201.104 19.6562 199.115 18.6562 196.594 18.6562C194.115 18.6562 192.146 19.6458 190.688 21.625C189.229 23.5833 188.5 26.5208 188.5 30.4375ZM237.719 37.8125C237.719 36.4583 237.156 35.4271 236.031 34.7188C234.927 34.0104 233.083 33.3854 230.5 32.8438C227.917 32.3021 225.76 31.6146 224.031 30.7812C220.24 28.9479 218.344 26.2917 218.344 22.8125C218.344 19.8958 219.573 17.4583 222.031 15.5C224.49 13.5417 227.615 12.5625 231.406 12.5625C235.448 12.5625 238.708 13.5625 241.188 15.5625C243.688 17.5625 244.938 20.1562 244.938 23.3438H237.344C237.344 21.8854 236.802 20.6771 235.719 19.7188C234.635 18.7396 233.198 18.25 231.406 18.25C229.74 18.25 228.375 18.6354 227.312 19.4062C226.271 20.1771 225.75 21.2083 225.75 22.5C225.75 23.6667 226.24 24.5729 227.219 25.2188C228.198 25.8646 230.177 26.5208 233.156 27.1875C236.135 27.8333 238.469 28.6146 240.156 29.5312C241.865 30.4271 243.125 31.5104 243.938 32.7812C244.771 34.0521 245.188 35.5938 245.188 37.4062C245.188 40.4479 243.927 42.9167 241.406 44.8125C238.885 46.6875 235.583 47.625 231.5 47.625C228.729 47.625 226.26 47.125 224.094 46.125C221.927 45.125 220.24 43.75 219.031 42C217.823 40.25 217.219 38.3646 217.219 36.3438H224.594C224.698 38.1354 225.375 39.5208 226.625 40.5C227.875 41.4583 229.531 41.9375 231.594 41.9375C233.594 41.9375 235.115 41.5625 236.156 40.8125C237.198 40.0417 237.719 39.0417 237.719 37.8125ZM285.219 29.4688H276.406V47H268.5V1.5H284.5C289.75 1.5 293.802 2.67708 296.656 5.03125C299.51 7.38542 300.938 10.7917 300.938 15.25C300.938 18.2917 300.198 20.8438 298.719 22.9062C297.26 24.9479 295.219 26.5208 292.594 27.625L302.812 46.5938V47H294.344L285.219 29.4688ZM276.406 23.125H284.531C287.198 23.125 289.281 22.4583 290.781 21.125C292.281 19.7708 293.031 17.9271 293.031 15.5938C293.031 13.1562 292.333 11.2708 290.938 9.9375C289.562 8.60417 287.5 7.91667 284.75 7.875H276.406V23.125ZM322.594 47.625C317.781 47.625 313.875 46.1146 310.875 43.0938C307.896 40.0521 306.406 36.0104 306.406 30.9688V30.0312C306.406 26.6562 307.052 23.6458 308.344 21C309.656 18.3333 311.49 16.2604 313.844 14.7812C316.198 13.3021 318.823 12.5625 321.719 12.5625C326.323 12.5625 329.875 14.0312 332.375 16.9688C334.896 19.9062 336.156 24.0625 336.156 29.4375V32.5H314.062C314.292 35.2917 315.219 37.5 316.844 39.125C318.49 40.75 320.552 41.5625 323.031 41.5625C326.51 41.5625 329.344 40.1562 331.531 37.3438L335.625 41.25C334.271 43.2708 332.458 44.8438 330.188 45.9688C327.938 47.0729 325.406 47.625 322.594 47.625ZM321.688 18.6562C319.604 18.6562 317.917 19.3854 316.625 20.8438C315.354 22.3021 314.542 24.3333 314.188 26.9375H328.656V26.375C328.49 23.8333 327.812 21.9167 326.625 20.625C325.438 19.3125 323.792 18.6562 321.688 18.6562ZM355.969 41.5625C357.865 41.5625 359.438 41.0104 360.688 39.9062C361.938 38.8021 362.604 37.4375 362.688 35.8125H369.844C369.76 37.9167 369.104 39.8854 367.875 41.7188C366.646 43.5312 364.979 44.9688 362.875 46.0312C360.771 47.0938 358.5 47.625 356.062 47.625C351.333 47.625 347.583 46.0938 344.812 43.0312C342.042 39.9688 340.656 35.7396 340.656 30.3438V29.5625C340.656 24.4167 342.031 20.3021 344.781 17.2188C347.531 14.1146 351.281 12.5625 356.031 12.5625C360.052 12.5625 363.323 13.7396 365.844 16.0938C368.385 18.4271 369.719 21.5 369.844 25.3125H362.688C362.604 23.375 361.938 21.7812 360.688 20.5312C359.458 19.2812 357.885 18.6562 355.969 18.6562C353.51 18.6562 351.615 19.5521 350.281 21.3438C348.948 23.1146 348.271 25.8125 348.25 29.4375V30.6562C348.25 34.3229 348.906 37.0625 350.219 38.875C351.552 40.6667 353.469 41.5625 355.969 41.5625ZM383.656 47H376.062V13.1875H383.656V47ZM375.594 4.40625C375.594 3.23958 375.958 2.27083 376.688 1.5C377.438 0.729167 378.5 0.34375 379.875 0.34375C381.25 0.34375 382.312 0.729167 383.062 1.5C383.812 2.27083 384.188 3.23958 384.188 4.40625C384.188 5.55208 383.812 6.51042 383.062 7.28125C382.312 8.03125 381.25 8.40625 379.875 8.40625C378.5 8.40625 377.438 8.03125 376.688 7.28125C375.958 6.51042 375.594 5.55208 375.594 4.40625ZM406.844 47.625C402.031 47.625 398.125 46.1146 395.125 43.0938C392.146 40.0521 390.656 36.0104 390.656 30.9688V30.0312C390.656 26.6562 391.302 23.6458 392.594 21C393.906 18.3333 395.74 16.2604 398.094 14.7812C400.448 13.3021 403.073 12.5625 405.969 12.5625C410.573 12.5625 414.125 14.0312 416.625 16.9688C419.146 19.9062 420.406 24.0625 420.406 29.4375V32.5H398.312C398.542 35.2917 399.469 37.5 401.094 39.125C402.74 40.75 404.802 41.5625 407.281 41.5625C410.76 41.5625 413.594 40.1562 415.781 37.3438L419.875 41.25C418.521 43.2708 416.708 44.8438 414.438 45.9688C412.188 47.0729 409.656 47.625 406.844 47.625ZM405.938 18.6562C403.854 18.6562 402.167 19.3854 400.875 20.8438C399.604 22.3021 398.792 24.3333 398.438 26.9375H412.906V26.375C412.74 23.8333 412.062 21.9167 410.875 20.625C409.688 19.3125 408.042 18.6562 405.938 18.6562ZM433.375 13.1875L433.594 17.0938C436.094 14.0729 439.375 12.5625 443.438 12.5625C450.479 12.5625 454.062 16.5938 454.188 24.6562V47H446.594V25.0938C446.594 22.9479 446.125 21.3646 445.188 20.3438C444.271 19.3021 442.76 18.7812 440.656 18.7812C437.594 18.7812 435.312 20.1667 433.812 22.9375V47H426.219V13.1875H433.375ZM471.469 4.96875V13.1875H477.438V18.8125H471.469V37.6875C471.469 38.9792 471.719 39.9167 472.219 40.5C472.74 41.0625 473.656 41.3438 474.969 41.3438C475.844 41.3438 476.729 41.2396 477.625 41.0312V46.9062C475.896 47.3854 474.229 47.625 472.625 47.625C466.792 47.625 463.875 44.4062 463.875 37.9688V18.8125H458.312V13.1875H463.875V4.96875H471.469ZM498.156 47.625C493.344 47.625 489.438 46.1146 486.438 43.0938C483.458 40.0521 481.969 36.0104 481.969 30.9688V30.0312C481.969 26.6562 482.615 23.6458 483.906 21C485.219 18.3333 487.052 16.2604 489.406 14.7812C491.76 13.3021 494.385 12.5625 497.281 12.5625C501.885 12.5625 505.438 14.0312 507.938 16.9688C510.458 19.9062 511.719 24.0625 511.719 29.4375V32.5H489.625C489.854 35.2917 490.781 37.5 492.406 39.125C494.052 40.75 496.115 41.5625 498.594 41.5625C502.073 41.5625 504.906 40.1562 507.094 37.3438L511.188 41.25C509.833 43.2708 508.021 44.8438 505.75 45.9688C503.5 47.0729 500.969 47.625 498.156 47.625ZM497.25 18.6562C495.167 18.6562 493.479 19.3854 492.188 20.8438C490.917 22.3021 490.104 24.3333 489.75 26.9375H504.219V26.375C504.052 23.8333 503.375 21.9167 502.188 20.625C501 19.3125 499.354 18.6562 497.25 18.6562ZM536.594 37.8125C536.594 36.4583 536.031 35.4271 534.906 34.7188C533.802 34.0104 531.958 33.3854 529.375 32.8438C526.792 32.3021 524.635 31.6146 522.906 30.7812C519.115 28.9479 517.219 26.2917 517.219 22.8125C517.219 19.8958 518.448 17.4583 520.906 15.5C523.365 13.5417 526.49 12.5625 530.281 12.5625C534.323 12.5625 537.583 13.5625 540.062 15.5625C542.562 17.5625 543.812 20.1562 543.812 23.3438H536.219C536.219 21.8854 535.677 20.6771 534.594 19.7188C533.51 18.7396 532.073 18.25 530.281 18.25C528.615 18.25 527.25 18.6354 526.188 19.4062C525.146 20.1771 524.625 21.2083 524.625 22.5C524.625 23.6667 525.115 24.5729 526.094 25.2188C527.073 25.8646 529.052 26.5208 532.031 27.1875C535.01 27.8333 537.344 28.6146 539.031 29.5312C540.74 30.4271 542 31.5104 542.812 32.7812C543.646 34.0521 544.062 35.5938 544.062 37.4062C544.062 40.4479 542.802 42.9167 540.281 44.8125C537.76 46.6875 534.458 47.625 530.375 47.625C527.604 47.625 525.135 47.125 522.969 46.125C520.802 45.125 519.115 43.75 517.906 42C516.698 40.25 516.094 38.3646 516.094 36.3438H523.469C523.573 38.1354 524.25 39.5208 525.5 40.5C526.75 41.4583 528.406 41.9375 530.469 41.9375C532.469 41.9375 533.99 41.5625 535.031 40.8125C536.073 40.0417 536.594 39.0417 536.594 37.8125Z" fill="#120338"/>
</svg>
