<svg width="150" height="42" viewBox="0 0 150 42" fill="none" xmlns="http://www.w3.org/2000/svg">
<path d="M7.58789 33H3.1582V7.40625H7.58789V33ZM33.3574 33H28.9102L17.502 14.8418V33H13.0547V7.40625H17.502L28.9453 25.6348V7.40625H33.3574V33ZM43.3066 33H38.877V7.40625H43.3066V33ZM68.3027 24.668C68.0449 27.3984 67.0371 29.5312 65.2793 31.0664C63.5215 32.5898 61.1836 33.3516 58.2656 33.3516C56.2266 33.3516 54.4277 32.8711 52.8691 31.9102C51.3223 30.9375 50.127 29.5605 49.2832 27.7793C48.4395 25.998 48 23.9297 47.9648 21.5742V19.1836C47.9648 16.7695 48.3926 14.6426 49.248 12.8027C50.1035 10.9629 51.3281 9.54492 52.9219 8.54883C54.5273 7.55273 56.3789 7.05469 58.4766 7.05469C61.3008 7.05469 63.5742 7.82227 65.2969 9.35742C67.0195 10.8926 68.0215 13.0605 68.3027 15.8613H63.873C63.6621 14.0215 63.123 12.6973 62.2559 11.8887C61.4004 11.0684 60.1406 10.6582 58.4766 10.6582C56.543 10.6582 55.0547 11.3672 54.0117 12.7852C52.9805 14.1914 52.4531 16.2598 52.4297 18.9902V21.2578C52.4297 24.0234 52.9219 26.1328 53.9062 27.5859C54.9023 29.0391 56.3555 29.7656 58.2656 29.7656C60.0117 29.7656 61.3242 29.373 62.2031 28.5879C63.082 27.8027 63.6387 26.4961 63.873 24.668H68.3027ZM76.9863 33H72.5566V7.40625H76.9863V33ZM102.879 20.8711C102.879 23.3789 102.445 25.582 101.578 27.4805C100.711 29.3672 99.4688 30.8203 97.8516 31.8398C96.2461 32.8477 94.3945 33.3516 92.2969 33.3516C90.2227 33.3516 88.3711 32.8477 86.7422 31.8398C85.125 30.8203 83.8711 29.373 82.9805 27.498C82.1016 25.623 81.6562 23.4609 81.6445 21.0117V19.5703C81.6445 17.0742 82.084 14.8711 82.9629 12.9609C83.8535 11.0508 85.1016 9.5918 86.707 8.58398C88.3242 7.56445 90.1758 7.05469 92.2617 7.05469C94.3477 7.05469 96.1934 7.55859 97.7988 8.56641C99.416 9.5625 100.664 11.0039 101.543 12.8906C102.422 14.7656 102.867 16.9512 102.879 19.4473V20.8711ZM98.4316 19.5352C98.4316 16.6992 97.8926 14.5254 96.8145 13.0137C95.748 11.502 94.2305 10.7461 92.2617 10.7461C90.3398 10.7461 88.834 11.502 87.7441 13.0137C86.666 14.5137 86.1152 16.6406 86.0918 19.3945V20.8711C86.0918 23.6836 86.6367 25.8574 87.7266 27.3926C88.8281 28.9277 90.3516 29.6953 92.2969 29.6953C94.2656 29.6953 95.7773 28.9453 96.832 27.4453C97.8984 25.9453 98.4316 23.7539 98.4316 20.8711V19.5352Z" fill="#F9F0FF"/>
<g clip-path="url(#clip0)">
<path d="M149.46 17.7164L133.935 2.19944L132.894 1.15881C132.657 0.923271 132.336 0.791077 132.002 0.791077C131.668 0.791077 131.347 0.923271 131.11 1.15881L114.545 17.7164C114.302 17.9584 114.11 18.2466 113.98 18.5641C113.85 18.8815 113.785 19.2217 113.789 19.5646C113.805 20.9789 114.982 22.1079 116.397 22.1079H118.104V35.1941H145.9V22.1079H147.644C148.331 22.1079 148.978 21.8387 149.464 21.3526C149.703 21.1139 149.893 20.8302 150.022 20.5178C150.151 20.2054 150.216 19.8705 150.215 19.5325C150.215 18.8494 149.946 18.2026 149.46 17.7164ZM134.252 32.3012H129.752V24.1048H134.252V32.3012ZM143.007 19.2151V32.3012H136.824V23.1405C136.824 22.2526 136.104 21.5334 135.216 21.5334H128.788C127.9 21.5334 127.181 22.2526 127.181 23.1405V32.3012H120.997V19.2151H117.14L132.006 4.36104L132.934 5.28917L146.868 19.2151H143.007Z" fill="#F9F0FF" fill-opacity="0.85"/>
</g>
<defs>
<clipPath id="clip0">
<rect width="36" height="36" fill="white" transform="translate(114)"/>
</clipPath>
</defs>
</svg>
