<svg width="502" height="91" viewBox="0 0 502 91" fill="none" xmlns="http://www.w3.org/2000/svg">
<path d="M27.4297 50.0469C27.4297 48.7188 26.9609 47.7031 26.0234 47C25.0859 46.2812 23.3984 45.5312 20.9609 44.75C18.5234 43.9531 16.5938 43.1719 15.1719 42.4062C11.2969 40.3125 9.35938 37.4922 9.35938 33.9453C9.35938 32.1016 9.875 30.4609 10.9062 29.0234C11.9531 27.5703 13.4453 26.4375 15.3828 25.625C17.3359 24.8125 19.5234 24.4062 21.9453 24.4062C24.3828 24.4062 26.5547 24.8516 28.4609 25.7422C30.3672 26.6172 31.8438 27.8594 32.8906 29.4688C33.9531 31.0781 34.4844 32.9062 34.4844 34.9531H27.4531C27.4531 33.3906 26.9609 32.1797 25.9766 31.3203C24.9922 30.4453 23.6094 30.0078 21.8281 30.0078C20.1094 30.0078 18.7734 30.375 17.8203 31.1094C16.8672 31.8281 16.3906 32.7812 16.3906 33.9688C16.3906 35.0781 16.9453 36.0078 18.0547 36.7578C19.1797 37.5078 20.8281 38.2109 23 38.8672C27 40.0703 29.9141 41.5625 31.7422 43.3438C33.5703 45.125 34.4844 47.3438 34.4844 50C34.4844 52.9531 33.3672 55.2734 31.1328 56.9609C28.8984 58.6328 25.8906 59.4688 22.1094 59.4688C19.4844 59.4688 17.0938 58.9922 14.9375 58.0391C12.7812 57.0703 11.1328 55.75 9.99219 54.0781C8.86719 52.4062 8.30469 50.4688 8.30469 48.2656H15.3594C15.3594 52.0312 17.6094 53.9141 22.1094 53.9141C23.7812 53.9141 25.0859 53.5781 26.0234 52.9062C26.9609 52.2188 27.4297 51.2656 27.4297 50.0469ZM67.0391 59H60.0078V44.375H46.2969V59H39.2656V24.875H46.2969V38.7031H60.0078V24.875H67.0391V59ZM101.234 42.7109C101.234 46.0703 100.641 49.0156 99.4531 51.5469C98.2656 54.0781 96.5625 56.0312 94.3438 57.4062C92.1406 58.7812 89.6094 59.4688 86.75 59.4688C83.9219 59.4688 81.3984 58.7891 79.1797 57.4297C76.9609 56.0703 75.2422 54.1328 74.0234 51.6172C72.8047 49.0859 72.1875 46.1797 72.1719 42.8984V41.2109C72.1719 37.8516 72.7734 34.8984 73.9766 32.3516C75.1953 29.7891 76.9062 27.8281 79.1094 26.4688C81.3281 25.0938 83.8594 24.4062 86.7031 24.4062C89.5469 24.4062 92.0703 25.0938 94.2734 26.4688C96.4922 27.8281 98.2031 29.7891 99.4062 32.3516C100.625 34.8984 101.234 37.8438 101.234 41.1875V42.7109ZM94.1094 41.1641C94.1094 37.5859 93.4688 34.8672 92.1875 33.0078C90.9062 31.1484 89.0781 30.2188 86.7031 30.2188C84.3438 30.2188 82.5234 31.1406 81.2422 32.9844C79.9609 34.8125 79.3125 37.5 79.2969 41.0469V42.7109C79.2969 46.1953 79.9375 48.8984 81.2188 50.8203C82.5 52.7422 84.3438 53.7031 86.75 53.7031C89.1094 53.7031 90.9219 52.7812 92.1875 50.9375C93.4531 49.0781 94.0938 46.375 94.1094 42.8281V41.1641ZM133.344 54.6875C132.078 56.2031 130.289 57.3828 127.977 58.2266C125.664 59.0547 123.102 59.4688 120.289 59.4688C117.336 59.4688 114.742 58.8281 112.508 57.5469C110.289 56.25 108.57 54.375 107.352 51.9219C106.148 49.4688 105.531 46.5859 105.5 43.2734V40.9531C105.5 37.5469 106.07 34.6016 107.211 32.1172C108.367 29.6172 110.023 27.7109 112.18 26.3984C114.352 25.0703 116.891 24.4062 119.797 24.4062C123.844 24.4062 127.008 25.375 129.289 27.3125C131.57 29.2344 132.922 32.0391 133.344 35.7266H126.5C126.188 33.7734 125.492 32.3438 124.414 31.4375C123.352 30.5312 121.883 30.0781 120.008 30.0781C117.617 30.0781 115.797 30.9766 114.547 32.7734C113.297 34.5703 112.664 37.2422 112.648 40.7891V42.9688C112.648 46.5469 113.328 49.25 114.688 51.0781C116.047 52.9062 118.039 53.8203 120.664 53.8203C123.305 53.8203 125.188 53.2578 126.312 52.1328V46.25H119.914V41.0703H133.344V54.6875ZM164.891 24.875V47.3516C164.891 51.0859 163.719 54.0391 161.375 56.2109C159.047 58.3828 155.859 59.4688 151.812 59.4688C147.828 59.4688 144.664 58.4141 142.32 56.3047C139.977 54.1953 138.781 51.2969 138.734 47.6094V24.875H145.766V47.3984C145.766 49.6328 146.297 51.2656 147.359 52.2969C148.438 53.3125 149.922 53.8203 151.812 53.8203C155.766 53.8203 157.773 51.7422 157.836 47.5859V24.875H164.891ZM198.406 59H191.375L177.688 36.5469V59H170.656V24.875H177.688L191.398 47.375V24.875H198.406V59ZM235.414 52.625H224.141L222.172 59H213.383L225.898 24.875H233.633L246.242 59H237.406L235.414 52.625ZM226.109 46.2734H233.445L229.766 34.4375L226.109 46.2734ZM277.25 59H269.07L256.977 37.7656V59H248.75V24.875H256.977L269.047 46.1094V24.875H277.25V59ZM291.219 59H283.016V24.875H291.219V59ZM307.742 24.875L315.359 48.6172L322.953 24.875H333.781V59H325.531V51.0312L326.328 34.7188L318.078 59H312.641L304.367 34.6953L305.164 51.0312V59H296.938V24.875H307.742ZM360.195 44.5391H347.258V52.6719H362.539V59H339.031V24.875H362.586V31.2266H347.258V38.4219H360.195V44.5391Z" fill="#F9F0FF"/>
<path d="M387.6 32.832C386.688 30.336 385.392 27.456 384.096 25.104L379.44 27.12C381.072 30.528 382.8 34.944 383.424 37.824L387.6 35.808V44.976C384.384 46.992 381.168 48.816 379.056 49.968L381.6 55.92C383.52 54.528 385.584 52.944 387.6 51.36V64.128H393.168V19.392H387.6V32.832ZM418.176 19.344C412.368 21.072 402.912 22.464 394.512 23.232C395.04 24.384 395.76 26.448 395.952 27.744C404.592 27.12 414.672 25.776 421.968 23.712L418.176 19.344ZM411.84 35.52C411.6 33.312 410.544 29.808 409.392 27.168L404.448 28.464C405.552 31.2 406.464 34.704 406.608 36.96L411.84 35.52ZM403.632 37.2C403.104 34.848 401.472 31.392 399.888 28.752L395.376 30.384C396.864 33.168 398.304 36.816 398.784 39.072L403.632 37.2ZM397.632 49.968C399.744 52.56 402.24 56.112 403.152 58.416L408.144 55.68C407.04 53.328 404.448 49.968 402.24 47.568L397.632 49.968ZM424.368 41.952H418.176V38.928H416.784C419.04 36.144 421.536 32.544 423.648 29.088L418.368 26.64C416.592 30.384 413.424 35.232 410.928 38.304L412.512 39.12V41.952H394.656V47.232H412.512V57.84C412.512 58.464 412.32 58.608 411.504 58.656C410.688 58.704 408 58.704 405.504 58.56C406.272 60.144 407.04 62.544 407.28 64.128C410.976 64.128 413.76 64.08 415.632 63.168C417.648 62.352 418.176 60.816 418.176 57.936V47.232H424.368V41.952ZM439.296 47.616V45.024H447.168V47.616H439.296ZM439.296 38.784H447.168V41.328H439.296V38.784ZM461.088 38.784V41.328H452.784V38.784H461.088ZM461.088 47.616H452.784V45.024H461.088V47.616ZM471.168 54H452.784V51.552H466.704V34.848H452.784V32.736H463.008V28.56H452.784V26.256H464.928V31.872H470.688V21.408H429.408V31.872H434.88V26.256H447.168V28.56H436.752V32.736H447.168V34.848H433.92V51.552H447.168V54H429.072V59.088H447.168V64.272H452.784V59.088H471.168V54Z" fill="#120338"/>
</svg>
