<svg width="243" height="36" viewBox="0 0 243 36" fill="none" xmlns="http://www.w3.org/2000/svg">
<path d="M239.786 1.93344C239.634 1.93344 239.477 1.96157 239.32 2.02585L216.161 11.3312H209.572C209.218 11.3312 208.929 11.6285 208.929 11.9982V24.0116C208.929 24.3812 209.218 24.6785 209.572 24.6785H213.658C213.51 25.1446 213.429 25.6388 213.429 26.141C213.429 28.7888 215.591 30.9424 218.251 30.9424C220.477 30.9424 222.353 29.4317 222.907 27.3906L239.324 33.9879C239.481 34.0482 239.638 34.0803 239.79 34.0803C240.469 34.0803 241.076 33.5098 241.076 32.7464V3.26737C241.072 2.50398 240.469 1.93344 239.786 1.93344ZM218.251 28.0616C217.186 28.0616 216.322 27.2017 216.322 26.141C216.322 25.691 216.479 25.2611 216.764 24.9196L220.175 26.2897C220.095 27.2781 219.263 28.0616 218.251 28.0616V28.0616ZM238.179 30.408L217.238 21.9946L216.72 21.7857H211.822V14.2241H216.72L217.238 14.0151L238.179 5.60175V30.408V30.408Z" fill="#F9F0FF" fill-opacity="0.85"/>
<path d="M58.0898 31H53.6426L42.2344 12.8418V31H37.7871V5.40625H42.2344L53.6777 23.6348V5.40625H58.0898V31ZM83.7715 18.8711C83.7715 21.3789 83.3379 23.582 82.4707 25.4805C81.6035 27.3672 80.3613 28.8203 78.7441 29.8398C77.1387 30.8477 75.2871 31.3516 73.1895 31.3516C71.1152 31.3516 69.2637 30.8477 67.6348 29.8398C66.0176 28.8203 64.7637 27.373 63.873 25.498C62.9941 23.623 62.5488 21.4609 62.5371 19.0117V17.5703C62.5371 15.0742 62.9766 12.8711 63.8555 10.9609C64.7461 9.05078 65.9941 7.5918 67.5996 6.58398C69.2168 5.56445 71.0684 5.05469 73.1543 5.05469C75.2402 5.05469 77.0859 5.55859 78.6914 6.56641C80.3086 7.5625 81.5566 9.00391 82.4355 10.8906C83.3145 12.7656 83.7598 14.9512 83.7715 17.4473V18.8711ZM79.3242 17.5352C79.3242 14.6992 78.7852 12.5254 77.707 11.0137C76.6406 9.50195 75.123 8.74609 73.1543 8.74609C71.2324 8.74609 69.7266 9.50195 68.6367 11.0137C67.5586 12.5137 67.0078 14.6406 66.9844 17.3945V18.8711C66.9844 21.6836 67.5293 23.8574 68.6191 25.3926C69.7207 26.9277 71.2441 27.6953 73.1895 27.6953C75.1582 27.6953 76.6699 26.9453 77.7246 25.4453C78.791 23.9453 79.3242 21.7539 79.3242 18.8711V17.5352ZM105.182 8.99219H97.2012V31H92.7891V8.99219H84.8789V5.40625H105.182V8.99219ZM113.25 31H108.82V5.40625H113.25V31ZM138.246 22.668C137.988 25.3984 136.98 27.5312 135.223 29.0664C133.465 30.5898 131.127 31.3516 128.209 31.3516C126.17 31.3516 124.371 30.8711 122.812 29.9102C121.266 28.9375 120.07 27.5605 119.227 25.7793C118.383 23.998 117.943 21.9297 117.908 19.5742V17.1836C117.908 14.7695 118.336 12.6426 119.191 10.8027C120.047 8.96289 121.271 7.54492 122.865 6.54883C124.471 5.55273 126.322 5.05469 128.42 5.05469C131.244 5.05469 133.518 5.82227 135.24 7.35742C136.963 8.89258 137.965 11.0605 138.246 13.8613H133.816C133.605 12.0215 133.066 10.6973 132.199 9.88867C131.344 9.06836 130.084 8.6582 128.42 8.6582C126.486 8.6582 124.998 9.36719 123.955 10.7852C122.924 12.1914 122.396 14.2598 122.373 16.9902V19.2578C122.373 22.0234 122.865 24.1328 123.85 25.5859C124.846 27.0391 126.299 27.7656 128.209 27.7656C129.955 27.7656 131.268 27.373 132.146 26.5879C133.025 25.8027 133.582 24.4961 133.816 22.668H138.246ZM146.93 31H142.5V5.40625H146.93V31ZM167.039 25.041H157.125L155.051 31H150.428L160.096 5.40625H164.086L173.771 31H169.131L167.039 25.041ZM158.373 21.4551H165.791L162.082 10.8379L158.373 21.4551ZM190.066 24.4082C190.066 23.2832 189.668 22.416 188.871 21.8066C188.086 21.1973 186.662 20.582 184.6 19.9609C182.537 19.3398 180.896 18.6484 179.678 17.8867C177.346 16.4219 176.18 14.5117 176.18 12.1562C176.18 10.0938 177.018 8.39453 178.693 7.05859C180.381 5.72266 182.566 5.05469 185.25 5.05469C187.031 5.05469 188.619 5.38281 190.014 6.03906C191.408 6.69531 192.504 7.63281 193.301 8.85156C194.098 10.0586 194.496 11.4004 194.496 12.877H190.066C190.066 11.541 189.645 10.498 188.801 9.74805C187.969 8.98633 186.773 8.60547 185.215 8.60547C183.762 8.60547 182.631 8.91602 181.822 9.53711C181.025 10.1582 180.627 11.0254 180.627 12.1387C180.627 13.0762 181.061 13.8613 181.928 14.4941C182.795 15.1152 184.225 15.7246 186.217 16.3223C188.209 16.9082 189.809 17.582 191.016 18.3438C192.223 19.0938 193.107 19.9609 193.67 20.9453C194.232 21.918 194.514 23.0605 194.514 24.373C194.514 26.5059 193.693 28.2051 192.053 29.4707C190.424 30.7246 188.209 31.3516 185.408 31.3516C183.557 31.3516 181.852 31.0117 180.293 30.332C178.746 29.6406 177.539 28.6914 176.672 27.4844C175.816 26.2773 175.389 24.8711 175.389 23.2656H179.836C179.836 24.7188 180.316 25.8438 181.277 26.6406C182.238 27.4375 183.615 27.8359 185.408 27.8359C186.955 27.8359 188.115 27.5254 188.889 26.9043C189.674 26.2715 190.066 25.4395 190.066 24.4082Z" fill="#F9F0FF"/>
</svg>
